<svg xmlns="http://www.w3.org/2000/svg" width="32" height="32" viewBox="0 0 256 256">
  <defs>
    <linearGradient id="a" x1="-.8%" x2="57.6%" y1="7.7%" y2="78.4%">
      <stop offset="0%" stop-color="#41D1FF"/>
      <stop offset="100%" stop-color="#BD34FE"/>
    </linearGradient>
    <linearGradient id="b" x1="43.4%" x2="50.3%" y1="0%" y2="100%">
      <stop offset="0%" stop-color="#FFBD4F"/>
      <stop offset="100%" stop-color="#FF980E"/>
    </linearGradient>
  </defs>
  <path fill="url(#a)" d="M255.2 119.5L134.3 7.5a10 10 0 0 0-13.6 0L.8 119.5a10 10 0 0 0 2.4 16.2l113.6 49.2a10 10 0 0 0 8.2 0l113.6-49.2a10 10 0 0 0 2.4-16.2z"/>
  <path fill="url(#b)" d="M185.7 63.4L127 208.8a4 4 0 0 1-7.4 0L60.9 63.4a4 4 0 0 1 4.7-5.3l59 12.5a4 4 0 0 0 1.7 0l59-12.5a4 4 0 0 1 4.7 5.3z"/>
</svg>
